<svg xmlns="http://www.w3.org/2000/svg" version="1.1" xmlns:xlink="http://www.w3.org/1999/xlink" xmlns:svgjs="http://svgjs.dev/svgjs" width="1000" height="1125" viewBox="0 0 1000 1125"><g transform="matrix(1,0,0,1,1.7053025658242404e-13,0)"><svg viewBox="0 0 320 360" data-background-color="#8abcd7" preserveAspectRatio="xMidYMid meet" height="1125" width="1000" xmlns="http://www.w3.org/2000/svg" xmlns:xlink="http://www.w3.org/1999/xlink"><g id="tight-bounds" transform="matrix(1,0,0,1,0,0)"><svg viewBox="0 0 320 360" height="360" width="320"><g><svg></svg></g><g><svg viewBox="0 0 320 360" height="360" width="320"><g><path d="M20.961 227.22l3.726 4.658-1.863-6.056c-0.466-2.795-3.726 0.466-1.863 1.398M25.153 224.425c1.397 2.329 2.795 4.658 2.795 6.987 0 3.261 2.795 4.658 5.123 5.589-3.261-3.726-5.124-13.974-7.918-12.576M204.017 26.929c7.918 0 15.371-0.932 23.756 0.931 20.495 5.124 37.729 15.371 49.374 29.811l32.606 52.169c1.397 13.042 4.192 27.482 3.726 43.319 3.261 0 2.795-4.658 6.521-5.59-3.726 9.316-5.59 20.961-6.521 34.469-2.329-7.453 0-18.632 0.466-24.687-3.261 5.124-5.124 1.397-5.124-0.932 0.466-3.726-1.397-3.261-2.795-4.658-5.124-4.658-8.384-9.782-12.11-17.7 2.329-6.055 2.795-14.905-4.658-19.563-2.329-1.397-5.124-3.726-6.521-7.453-1.863-5.124-5.124-11.179-4.193-19.097 0.466-2.329-6.987 5.124-11.179 1.863-18.166-12.576-36.332-27.016-58.224-39.127-11.645 0-20.029-4.192-24.221-9.316-3.726-4.658-0.932-10.713 4.658-11.179 3.261 0 6.987-0.932 9.782 0.932 0.466-1.863 2.329-4.192 4.657-4.192M157.904 16.215l0.932 0.466c4.658 0.932 6.987 7.453 12.11 5.124 0 3.261 0.466 6.521-0.466 8.85-1.397 3.726-5.59 3.726-8.85 3.726-31.208-1.863-49.374 11.179-68.471 22.358-5.124 3.261-10.713 5.59-14.906 9.782-20.029 18.632-41.921 35.866-47.045 70.335l-4.192 38.195c-0.466 4.192-5.124 8.384-4.192 13.508l3.26 22.824c-3.261-3.261-5.124 0.932-4.192 2.795 0.466 1.397 2.329 6.055 5.124 1.863 3.726 6.987 7.453 20.495 12.576 26.55 15.837 18.632 36.332 35.4 53.101 52.169 4.192-0.932 7.453-0.932 8.384-3.727 1.397 2.795-1.397 5.59-3.726 6.056 7.453 4.658 15.837 8.85 27.016 9.781 14.44 0.932 27.948 3.261 40.524 6.522 6.521-1.863 13.042-2.795 20.029-3.261 2.329 0 3.726-3.726 6.521-4.658l0.466-4.658c2.795 4.192 2.329-1.397 0.466-4.192 3.261 2.795 4.192 5.124 5.589 6.987 0-1.397 3.726-6.521 3.727-0.466l0.931-6.055c1.397-0.932 1.863 5.124 3.261 0.931 1.397-4.192 4.192-0.932 6.987-2.329-0.932 1.863-0.466 5.59 2.794 3.261l3.727-3.261c2.329 5.59 6.055 3.261 7.918 2.329 20.495-13.042 40.99-28.413 60.553-43.784l-0.466 6.055 2.329-7.453c2.329 2.329 4.192 0.466 5.124-0.931 2.795-4.658 6.521-9.316 12.577-13.508-7.453 20.029-16.303 35.866-27.482 48.908l-4.658 5.59c0 3.261-0.932 7.453-4.658 7.918-1.863 0.466-5.59-0.932-8.384 1.863-1.397 1.863 3.261 5.59-0.466 2.795-3.261-2.329-6.521 0-10.248 0.932-2.795 0.932 1.863 3.726 2.795 5.589 0.932 1.863 1.863 3.726 1.398 6.056l-5.124-5.59c-6.055 3.261-9.782 9.316-14.906 13.974-2.329 1.863-1.397 5.124-1.397 7.918-3.261 0-6.987-0.932-8.85 0.932-1.397 1.863-0.932 4.658-0.932 7.453-4.658-0.466-5.124-7.453-9.315-6.056-4.192 0.932-8.85 1.397-12.577 3.727 2.795 5.59-4.658 2.329-3.726 3.26-6.987-4.192-13.042-7.453-20.495-4.658-15.837-5.124-35.4-2.795-49.84-0.931 0-2.329 0.466-4.658-0.466-5.124-0.932 2.329-3.726 1.397-3.26 1.397-8.85-6.055-17.7-9.782-27.016-14.905-8.384 0.932-16.303-3.261-18.632-5.59-6.521-6.055-13.974-2.795-20.029-4.192-13.042-3.261-17.7-16.769-19.098-26.084-0.932-4.658-4.658-6.521-6.055-6.056-6.055-19.563-15.371-37.263-22.824-55.429-1.863-4.658-1.397-9.316-1.397-14.44 2.329 0.932 4.658 0.466 4.192-2.794-2.329-15.371-7.918-27.016-13.974-38.195 3.261-15.837 3.726-34.469 11.179-48.443 6.521-12.576 18.632-19.098 27.016-29.811 2.795-3.726 2.795-8.85 5.59-12.11 9.316-9.316 18.632-19.098 28.879-27.482 4.658-3.726 10.247 0 17.234-1.397 2.329-8.384 11.645-15.837 20.495-13.508 3.726 0.932 11.179-8.85 13.508-9.782 3.726-1.397 1.863 3.726 1.863 6.987 8.85-6.987 20.961-10.713 32.14-14.906" fill="#ffffff" fill-rule="nonzero" stroke="none" stroke-width="1" stroke-linecap="butt" stroke-linejoin="miter" stroke-miterlimit="10" stroke-dasharray="" stroke-dashoffset="0" font-family="none" font-weight="none" font-size="none" text-anchor="none" style="mix-blend-mode: normal" data-fill-palette-color="tertiary"></path></g><g transform="matrix(1,0,0,1,64.00000000000001,147.8135092713833)"><svg viewBox="0 0 191.99999999999997 64.37298145723337" height="64.37298145723337" width="191.99999999999997"><g><svg viewBox="0 0 191.99999999999997 64.37298145723337" height="64.37298145723337" width="191.99999999999997"><g><svg viewBox="0 0 191.99999999999997 64.37298145723337" height="64.37298145723337" width="191.99999999999997"><g><svg viewBox="0 0 191.99999999999997 64.37298145723337" height="64.37298145723337" width="191.99999999999997"><g id="textblocktransform"><svg viewBox="0 0 191.99999999999997 64.37298145723337" height="64.37298145723337" width="191.99999999999997" id="textblock"><g><svg viewBox="0 0 191.99999999999997 36.49419218585005" height="36.49419218585005" width="191.99999999999997"><g transform="matrix(1,0,0,1,0,0)"><svg width="191.99999999999997" viewBox="1.65 -42.3 284.08000000000004 54" height="36.49419218585005" data-palette-color="#ffffff"><path d="M13-27.65Q17.4-27.65 19.7-26.18 22-24.7 22.75-22.23 23.5-19.75 23.5-16L23.5-16 23.5 0 18.8 0 18.8-2.75Q16.9-0.95 15-0.15 13.1 0.65 10.9 0.65L10.9 0.65Q8.3 0.65 6.2-0.48 4.1-1.6 2.88-3.73 1.65-5.85 1.65-8.75L1.65-8.75Q1.65-13.25 4.45-15.73 7.25-18.2 12-18.2L12-18.2Q15.75-18.2 18.75-16.55L18.75-16.55Q18.7-19 18.25-20.45 17.8-21.9 16.4-22.68 15-23.45 12.25-23.45L12.25-23.45 8.55-23.45 8.55-27.65 13-27.65ZM11.55-3.4Q13.25-3.4 15.13-4.2 17-5 18.8-6.6L18.8-6.6 18.8-12.9Q16-14.3 12.7-14.3L12.7-14.3Q10.05-14.3 8.25-13.03 6.45-11.75 6.45-8.75L6.45-8.75Q6.45-5.95 7.98-4.67 9.5-3.4 11.55-3.4L11.55-3.4ZM38.3 0.65Q34.55 0.65 32.9-0.85 31.25-2.35 31.25-5.9L31.25-5.9 31.25-42.3 35.95-42.3 35.95-7.15Q35.95-5.15 36.57-4.42 37.2-3.7 38.95-3.7L38.95-3.7Q40.35-3.7 41.45-4L41.45-4 41.45 0.3Q39.45 0.65 38.3 0.65L38.3 0.65ZM65.8-42.3L70.5-42.3 70.5 0 65.8 0 65.8-2.5Q61.84 0.85 57.8 0.85L57.8 0.85Q52.2 0.85 48.84-2.9 45.49-6.65 45.49-13.8L45.49-13.8Q45.49-20.95 48.84-24.7 52.2-28.45 57.8-28.45L57.8-28.45Q61.8-28.45 65.8-25.05L65.8-25.05 65.8-42.3ZM58.4-3.5Q62-3.5 65.8-6.6L65.8-6.6 65.8-20.95Q62.09-24.05 58.4-24.05L58.4-24.05Q54.45-24.05 52.42-21.45 50.4-18.85 50.4-13.8L50.4-13.8Q50.4-8.75 52.42-6.13 54.45-3.5 58.4-3.5L58.4-3.5ZM79.49-32.85L79.49-40.4 84.19-40.4 84.19-32.85 79.49-32.85ZM79.49 0L79.49-27.65 84.19-27.65 84.19 0 79.49 0ZM105.89-28.45Q111.49-28.45 114.82-24.7 118.14-20.95 118.14-13.8L118.14-13.8Q118.14-6.65 114.82-2.9 111.49 0.85 105.89 0.85L105.89 0.85Q101.84 0.85 97.89-2.5L97.89-2.5 97.89 11.7 93.19 11.7 93.19-27.65 97.89-27.65 97.89-25.05Q101.89-28.45 105.89-28.45L105.89-28.45ZM105.24-3.5Q109.19-3.5 111.24-6.13 113.29-8.75 113.29-13.8L113.29-13.8Q113.29-18.85 111.24-21.45 109.19-24.05 105.24-24.05L105.24-24.05Q101.49-24.05 97.89-20.95L97.89-20.95 97.89-6.6Q101.59-3.5 105.24-3.5L105.24-3.5ZM138.54-28.25L139.69-28.25 139.69-23.85 138.54-23.85Q134.24-23.85 130.19-20.4L130.19-20.4 130.19 0 125.49 0 125.49-27.65 130.19-27.65 130.19-24.55Q134.29-28.25 138.54-28.25L138.54-28.25ZM154.19-27.65Q158.59-27.65 160.88-26.18 163.19-24.7 163.94-22.23 164.69-19.75 164.69-16L164.69-16 164.69 0 159.99 0 159.99-2.75Q158.09-0.95 156.19-0.15 154.28 0.65 152.09 0.65L152.09 0.65Q149.49 0.65 147.38-0.48 145.28-1.6 144.06-3.73 142.84-5.85 142.84-8.75L142.84-8.75Q142.84-13.25 145.63-15.73 148.44-18.2 153.19-18.2L153.19-18.2Q156.94-18.2 159.94-16.55L159.94-16.55Q159.88-19 159.44-20.45 158.99-21.9 157.59-22.68 156.19-23.45 153.44-23.45L153.44-23.45 149.74-23.45 149.74-27.65 154.19-27.65ZM152.74-3.4Q154.44-3.4 156.31-4.2 158.19-5 159.99-6.6L159.99-6.6 159.99-12.9Q157.19-14.3 153.88-14.3L153.88-14.3Q151.24-14.3 149.44-13.03 147.63-11.75 147.63-8.75L147.63-8.75Q147.63-5.95 149.16-4.67 150.69-3.4 152.74-3.4L152.74-3.4ZM184.48-22.95L178.08-22.95 178.08-7.15Q178.08-5.15 178.71-4.42 179.33-3.7 181.03-3.7L181.03-3.7Q182.53-3.7 184.23-4.1L184.23-4.1 184.23 0.15Q181.98 0.65 180.23 0.65L180.23 0.65Q176.43 0.65 174.91-0.9 173.38-2.45 173.38-6.1L173.38-6.1 173.38-22.95 169.78-22.95 169.78-27.3 173.38-27.3 173.38-36.8 178.08-36.8 178.08-27.3 184.48-27.3 184.48-22.95ZM199.58-27.65Q203.98-27.65 206.28-26.18 208.58-24.7 209.33-22.23 210.08-19.75 210.08-16L210.08-16 210.08 0 205.38 0 205.38-2.75Q203.48-0.95 201.58-0.15 199.68 0.65 197.48 0.65L197.48 0.65Q194.88 0.65 192.78-0.48 190.68-1.6 189.46-3.73 188.23-5.85 188.23-8.75L188.23-8.75Q188.23-13.25 191.03-15.73 193.83-18.2 198.58-18.2L198.58-18.2Q202.33-18.2 205.33-16.55L205.33-16.55Q205.28-19 204.83-20.45 204.38-21.9 202.98-22.68 201.58-23.45 198.83-23.45L198.83-23.45 195.13-23.45 195.13-27.65 199.58-27.65ZM198.13-3.4Q199.83-3.4 201.71-4.2 203.58-5 205.38-6.6L205.38-6.6 205.38-12.9Q202.58-14.3 199.28-14.3L199.28-14.3Q196.63-14.3 194.83-13.03 193.03-11.75 193.03-8.75L193.03-8.75Q193.03-5.95 194.56-4.67 196.08-3.4 198.13-3.4L198.13-3.4ZM248.93-28.25Q253.98-28.25 256.4-25.55 258.83-22.85 258.83-16.65L258.83-16.65 258.83 0 254.13 0 254.13-16.65Q254.13-20.6 252.85-22.23 251.58-23.85 248.28-23.85L248.28-23.85Q244.38-23.85 240.48-20.1L240.48-20.1Q240.68-18.7 240.68-16.65L240.68-16.65 240.68 0 235.98 0 235.98-16.65Q235.98-20.6 234.7-22.23 233.43-23.85 230.13-23.85L230.13-23.85Q226.33-23.85 222.53-20.45L222.53-20.45 222.53 0 217.83 0 217.83-27.65 222.53-27.65 222.53-24.7Q226.58-28.25 230.78-28.25L230.78-28.25Q234.13-28.25 236.28-27.13 238.43-26 239.53-23.55L239.53-23.55Q244.08-28.25 248.93-28.25L248.93-28.25ZM275.23-27.65Q279.63-27.65 281.93-26.18 284.23-24.7 284.98-22.23 285.73-19.75 285.73-16L285.73-16 285.73 0 281.03 0 281.03-2.75Q279.13-0.95 277.23-0.15 275.33 0.65 273.13 0.65L273.13 0.65Q270.53 0.65 268.43-0.48 266.33-1.6 265.1-3.73 263.88-5.85 263.88-8.75L263.88-8.75Q263.88-13.25 266.68-15.73 269.48-18.2 274.23-18.2L274.23-18.2Q277.98-18.2 280.98-16.55L280.98-16.55Q280.93-19 280.48-20.45 280.03-21.9 278.63-22.68 277.23-23.45 274.48-23.45L274.48-23.45 270.78-23.45 270.78-27.65 275.23-27.65ZM273.78-3.4Q275.48-3.4 277.35-4.2 279.23-5 281.03-6.6L281.03-6.6 281.03-12.9Q278.23-14.3 274.93-14.3L274.93-14.3Q272.28-14.3 270.48-13.03 268.68-11.75 268.68-8.75L268.68-8.75Q268.68-5.95 270.2-4.67 271.73-3.4 273.78-3.4L273.78-3.4Z" opacity="1" transform="matrix(1,0,0,1,0,0)" fill="#ffffff" class="wordmark-text-0" data-fill-palette-color="primary" id="text-0"></path></svg></g></svg></g><g transform="matrix(1,0,0,1,0,41.819570686378036)"><svg viewBox="0 0 191.99999999999997 22.553410770855333" height="22.553410770855333" width="191.99999999999997"><g transform="matrix(1,0,0,1,0,0)"><svg width="191.99999999999997" viewBox="3.15 -37.15 401.39000000000004 47.150000000000006" height="22.553410770855333" data-palette-color="#ffffff"><path d="M28.05-24.2Q31.3-24.2 33.45-21.93 35.6-19.65 35.6-15.65L35.6-15.65 35.6 0 32.2 0 32.2-14.15Q32.2-17.85 30.8-19.48 29.4-21.1 27.15-21.1L27.15-21.1Q24.4-21.1 22.88-18.98 21.35-16.85 21.1-13.2L21.1-13.2 21.1 0 17.7 0 17.7-14.15Q17.7-17.85 16.3-19.48 14.9-21.1 12.65-21.1L12.65-21.1Q9.6-21.1 8.08-18.55 6.55-16 6.55-11.7L6.55-11.7 6.55 0 3.15 0 3.15-23.4 6.55-23.4 6.55-19.75Q7.7-21.9 9.47-23.05 11.25-24.2 13.55-24.2L13.55-24.2Q16.1-24.2 18-22.83 19.9-21.45 20.65-18.9L20.65-18.9Q21.75-21.4 23.65-22.8 25.55-24.2 28.05-24.2L28.05-24.2ZM64.7-4L72.15-23.4 75.35-23.4 62.7 10 59.3 10 63 0.45 53.4-23.4 56.95-23.4 64.7-4ZM130.05-24.2Q133.4-24.2 136.05-22.6 138.7-21 140.2-18.15 141.7-15.3 141.7-11.65L141.7-11.65Q141.7-8.05 140.22-5.23 138.75-2.4 136.12-0.8 133.5 0.8 130.15 0.8L130.15 0.8Q127.6 0.8 125.47-0.33 123.35-1.45 121.9-3.5L121.9-3.5 121.9 10 118.5 10 118.5-23.4 121.9-23.4 121.9-19.95Q123.35-21.95 125.45-23.08 127.55-24.2 130.05-24.2L130.05-24.2ZM130.15-2.3Q132.5-2.3 134.35-3.5 136.2-4.7 137.25-6.83 138.3-8.95 138.3-11.65L138.3-11.65Q138.3-14.4 137.25-16.55 136.2-18.7 134.35-19.9 132.5-21.1 130.15-21.1L130.15-21.1Q127.75-21.1 125.87-19.9 124-18.7 122.95-16.55 121.9-14.4 121.9-11.7L121.9-11.7Q121.9-9 122.95-6.85 124-4.7 125.87-3.5 127.75-2.3 130.15-2.3L130.15-2.3ZM171.1 0.8Q167.75 0.8 165.1-0.8 162.45-2.4 160.95-5.28 159.45-8.15 159.45-11.75L159.45-11.75Q159.45-15.35 160.92-18.18 162.4-21 165.02-22.6 167.65-24.2 171-24.2L171-24.2Q174.35-24.2 177-22.6 179.65-21 181.15-18.15 182.65-15.3 182.65-11.7L182.65-11.7Q182.65-8.1 181.17-5.25 179.7-2.4 177.07-0.8 174.45 0.8 171.1 0.8L171.1 0.8ZM171-2.3Q173.4-2.3 175.27-3.5 177.15-4.7 178.2-6.85 179.25-9 179.25-11.7L179.25-11.7Q179.25-14.4 178.2-16.55 177.15-18.7 175.27-19.9 173.4-21.1 171-21.1L171-21.1Q168.65-21.1 166.8-19.9 164.95-18.7 163.9-16.57 162.85-14.45 162.85-11.75L162.85-11.75Q162.85-9 163.9-6.85 164.95-4.7 166.8-3.5 168.65-2.3 171-2.3L171-2.3ZM213.35-24.2Q214.55-24.2 215.65-23.85L215.65-23.85 215.65-20.75Q214.6-21.25 213.35-21.25L213.35-21.25Q211.2-21.25 209.35-20.05 207.5-18.85 206.37-16.57 205.25-14.3 205.25-11.2L205.25-11.2 205.25 0 201.85 0 201.85-23.4 205.25-23.4 205.25-18.7Q206.6-21.3 208.67-22.75 210.75-24.2 213.35-24.2L213.35-24.2ZM237.85 0L234.45 0 234.45-20.3 230.45-20.3 230.45-23.4 234.45-23.4 234.45-31.15 237.85-31.15 237.85-23.4 243.25-23.4 243.25-20.3 237.85-20.3 237.85 0ZM270-34.05Q268.25-34.05 267.12-32.85 266-31.65 266-29.75L266-29.75 266-23.4 271.4-23.4 271.4-20.3 266-20.3 266 0 262.6 0 262.6-20.3 259.6-20.3 259.6-23.4 262.6-23.4 262.6-29.75Q262.6-33 264.67-35.08 266.75-37.15 270-37.15L270-37.15 271.4-37.15 271.4-34.05 270-34.05ZM299.7 0.8Q296.35 0.8 293.7-0.8 291.05-2.4 289.55-5.28 288.05-8.15 288.05-11.75L288.05-11.75Q288.05-15.35 289.52-18.18 291-21 293.62-22.6 296.25-24.2 299.6-24.2L299.6-24.2Q302.95-24.2 305.6-22.6 308.25-21 309.75-18.15 311.25-15.3 311.25-11.7L311.25-11.7Q311.25-8.1 309.77-5.25 308.3-2.4 305.67-0.8 303.05 0.8 299.7 0.8L299.7 0.8ZM299.6-2.3Q302-2.3 303.87-3.5 305.75-4.7 306.8-6.85 307.85-9 307.85-11.7L307.85-11.7Q307.85-14.4 306.8-16.55 305.75-18.7 303.87-19.9 302-21.1 299.6-21.1L299.6-21.1Q297.25-21.1 295.4-19.9 293.55-18.7 292.5-16.57 291.45-14.45 291.45-11.75L291.45-11.75Q291.45-9 292.5-6.85 293.55-4.7 295.4-3.5 297.25-2.3 299.6-2.3L299.6-2.3ZM334.09 0L330.69 0 330.69-36.3 334.09-36.3 334.09 0ZM360.24 0L356.84 0 356.84-23.4 360.24-23.4 360.24 0ZM358.54-27.95Q357.39-27.95 356.62-28.75 355.84-29.55 355.84-30.7L355.84-30.7Q355.84-31.8 356.62-32.58 357.39-33.35 358.54-33.35L358.54-33.35Q359.64-33.35 360.44-32.58 361.24-31.8 361.24-30.65L361.24-30.65Q361.24-29.55 360.44-28.75 359.64-27.95 358.54-27.95L358.54-27.95ZM392.99 0.8Q389.64 0.8 386.99-0.8 384.34-2.4 382.84-5.28 381.34-8.15 381.34-11.75L381.34-11.75Q381.34-15.35 382.82-18.18 384.29-21 386.92-22.6 389.54-24.2 392.89-24.2L392.89-24.2Q396.24-24.2 398.89-22.6 401.54-21 403.04-18.15 404.54-15.3 404.54-11.7L404.54-11.7Q404.54-8.1 403.07-5.25 401.59-2.4 398.97-0.8 396.34 0.8 392.99 0.8L392.99 0.8ZM392.89-2.3Q395.29-2.3 397.17-3.5 399.04-4.7 400.09-6.85 401.14-9 401.14-11.7L401.14-11.7Q401.14-14.4 400.09-16.55 399.04-18.7 397.17-19.9 395.29-21.1 392.89-21.1L392.89-21.1Q390.54-21.1 388.69-19.9 386.84-18.7 385.79-16.57 384.74-14.45 384.74-11.75L384.74-11.75Q384.74-9 385.79-6.85 386.84-4.7 388.69-3.5 390.54-2.3 392.89-2.3L392.89-2.3Z" opacity="1" transform="matrix(1,0,0,1,0,0)" fill="#ffffff" class="slogan-text-1" data-fill-palette-color="secondary" id="text-1"></path></svg></g></svg></g></svg></g></svg></g><g></g></svg></g></svg></g></svg></g></svg></g><defs></defs></svg><rect width="320" height="360" fill="none" stroke="none" visibility="hidden"></rect></g></svg></g></svg>